<!-- Created with Inkscape (http://www.inkscape.org/) -->
<svg xmlns:rdf="http://www.w3.org/1999/02/22-rdf-syntax-ns#" xmlns="http://www.w3.org/2000/svg" version="1.0" xmlns:cc="http://creativecommons.org/ns#" xmlns:xlink="http://www.w3.org/1999/xlink" viewBox="0 0 300 300" xmlns:dc="http://purl.org/dc/elements/1.1/">
 <defs>
  <radialGradient id="radialGradient7313" gradientUnits="userSpaceOnUse" cx="150" cy="150" r="142">
   <stop stop-color="#00FFB5" offset="0"/>
   <stop stop-color="#1FAD8C" offset="1"/>
  </radialGradient>
  <linearGradient id="linearGradient7315" x1="158" gradientUnits="userSpaceOnUse" y1="290" x2="158" y2="9.75">
   <stop stop-color="#FFF" stop-opacity="0.369176" offset="0"/>
   <stop stop-color="#FFF" stop-opacity="0.236559" offset="1"/>
  </linearGradient>
  <radialGradient id="radialGradient7327" cx="151" gradientUnits="userSpaceOnUse" cy="274" r="146" gradientTransform="matrix(1, 0, 0, 0.134043, 0, 237.441)">
   <stop stop-color="#000" stop-opacity="0.462366" offset="0"/>
   <stop stop-color="#000" stop-opacity="0" offset="1"/>
  </radialGradient>
 </defs>
 <metadata>
  <rdf:RDF>
   <cc:Work rdf:about="">
    <dc:format>image/svg+xml</dc:format>
    <dc:type rdf:resource="http://purl.org/dc/dcmitype/StillImage"/>
    <dc:title/>
   </cc:Work>
  </rdf:RDF>
 </metadata>
 <g fill="#000" transform="matrix(1.24826, 0, 0, 1.24826, -383.79, 34.1912)">
  <path style="color:rgb(0, 0, 0);" d="M297,274a146,19.6,0,1,1,-292,0,146,19.6,0,1,1,292,0z" fill-rule="nonzero" transform="matrix(0.801113, 0, 0, 0.801113, 307.46, -27.391)" fill="url(#radialGradient7327)"/>
  <g transform="matrix(0.875292, 0, 0, 0.875292, 55.8194, 10.0755)">
   <rect stroke-linejoin="miter" style="color:rgb(0, 0, 0);" stroke-dasharray="none" transform="matrix(0.801113, 0, 0, 0.801113, 307.46, -27.391)" fill-rule="nonzero" stroke-dashoffset="0pt" rx="15" ry="15" height="284" width="284" stroke="#005534" stroke-linecap="butt" stroke-miterlimit="4" y="8" x="8" stroke-width="5.2" fill="url(#radialGradient7313)"/>
   <rect stroke-linejoin="miter" style="color:rgb(0, 0, 0);" stroke-dasharray="none" transform="matrix(0.801113, 0, 0, 0.801113, 307.46, -27.391)" stroke-dashoffset="0pt" rx="14.5" ry="14.5" height="275" width="275" stroke="url(#linearGradient7315)" stroke-linecap="butt" stroke-miterlimit="4" y="12.3" x="12.3" stroke-width="5.04" fill="none"/>
   <path fill="#004b44" d="m398,36.2c-0.895,0.639-1.85,1.33-2.88,2.08-1.02,0.746-2.02,1.43-3,2.04-0.98,0.618-1.89,1.13-2.72,1.53-0.831,0.405-1.5,0.607-2.01,0.607-0.554,0.000084-1.11-0.373-1.66-1.12-0.554-0.745-1.17-1.57-1.85-2.46-0.682-0.895-1.47-1.71-2.36-2.46-0.895-0.745-1.94-1.12-3.13-1.12-1.62,0.000091-3.05,0.479-4.28,1.44-1.24,0.959-2.32,2.24-3.26,3.83-0.937,1.6-1.75,3.43-2.43,5.5-0.682,2.07-1.26,4.21-1.73,6.42-0.469,2.22-0.863,4.41-1.18,6.58-0.32,2.17-0.564,4.15-0.735,5.94l-0.383,3h16.4l1.28,1.79c-0.426,0.596-1,1.25-1.73,1.95-0.724,0.703-1.49,1.37-2.3,2.01-0.809,0.639-1.59,1.22-2.33,1.76-0.746,0.533-1.33,0.905-1.76,1.12-0.213-0.596-0.543-1.08-0.99-1.44-0.447-0.362-1.05-0.65-1.82-0.863-0.767-0.213-1.73-0.362-2.88-0.447-1.15-0.0852-2.51-0.128-4.09-0.128h-0.383l-4.6,39.7c-0.554,4.69-1.5,9.21-2.84,13.6-1.34,4.37-3.02,8.44-5.05,12.2-2.02,3.77-4.36,7.16-7,10.2-2.64,3-5.54,5.46-8.69,7.38l-1.66-4.03c2.13-1.19,4.06-3.07,5.78-5.62,1.73-2.56,3.24-5.5,4.54-8.82s2.38-6.85,3.23-10.6c0.852-3.73,1.47-7.34,1.85-10.8l4.98-43.2h-9.65l-0.959-1.98,6.45-3.77h4.79c0.426-3.41,0.927-6.69,1.5-9.84,0.575-3.15,1.38-6.13,2.43-8.95,1.04-2.81,2.43-5.44,4.15-7.89,1.73-2.45,3.93-4.68,6.61-6.68,1.15-0.809,2.26-1.58,3.32-2.3,1.07-0.724,2.15-1.36,3.26-1.92,1.11-0.554,2.25-0.98,3.42-1.28,1.17-0.298,2.42-0.447,3.74-0.447,1.87,0.000097,3.57,0.352,5.08,1.05,1.51,0.703,2.86,1.49,4.06,2.36,1.19,0.873,2.25,1.71,3.16,2.52,0.916,0.81,1.69,1.32,2.33,1.53z"/>
   <path fill="#004b44" d="m419,93.6c-0.0345-6.25-0.969-13.5-6.11-17.7-5.07-3.92-13.2-3.12-17.2,2-5.35,6.28-6.69,14.9-6.78,22.9,0.131,7.05,2.5,14.9,8.72,18.9,4.34,2.76,10.3,1.4,13.6-2.32,4.66-4.99,6.5-11.9,7.41-18.5,0.208-1.76,0.336-3.53,0.337-5.31zm9.14-3.51c-0.0728,14.7-8.14,29.5-21.4,36.2-6.22,3.48-14.6,2.8-19.8-2.27-6.25-6-7.63-15.3-7.09-23.6,0.414-9.27,4.2-18.4,11-24.8,4.88-4.75,10.9-9.02,17.9-9.56,5.92-0.458,12.3,1.95,15.5,7.15,3.21,4.99,3.93,11.1,3.98,16.9z"/>
   <path fill="#004b44" d="m476,71.9c-0.852,0.98-1.69,1.86-2.52,2.65-0.831,0.788-1.61,1.48-2.33,2.08-0.724,0.596-1.37,1.05-1.95,1.37-0.575,0.32-1.01,0.479-1.31,0.479-0.554,0.000047-1.14-0.373-1.76-1.12-0.618-0.745-1.32-1.55-2.11-2.43-0.788-0.873-1.7-1.68-2.75-2.43-1.04-0.745-2.27-1.12-3.67-1.12-1.19,0.000054-2.36,0.224-3.51,0.671s-2.18,1.07-3.1,1.85c-0.916,0.788-1.66,1.75-2.24,2.88-0.575,1.13-0.863,2.38-0.863,3.74-0.00002,1.49,0.714,3.07,2.14,4.73s3.87,3.28,7.32,4.86c1.75,0.809,3.49,1.75,5.24,2.81,1.75,1.07,3.31,2.29,4.7,3.67,1.38,1.38,2.51,2.96,3.39,4.73,0.873,1.77,1.31,3.78,1.31,6.04-0.00004,2.94-0.756,5.7-2.27,8.28s-3.45,4.81-5.82,6.71c-2.36,1.9-5,3.39-7.89,4.47-2.9,1.09-5.73,1.63-8.5,1.63-2-0.00001-3.98-0.288-5.94-0.863s-3.71-1.31-5.24-2.2c-1.53-0.895-2.78-1.86-3.74-2.91-0.959-1.04-1.44-2.01-1.44-2.91,0-0.469,0.256-1.15,0.767-2.04,0.511-0.895,1.12-1.78,1.82-2.65,0.703-0.873,1.42-1.64,2.14-2.3,0.724-0.66,1.32-0.99,1.79-0.99,0.298,0.00002,0.607,0.266,0.927,0.799s0.724,1.19,1.21,1.98c0.49,0.788,1.08,1.65,1.76,2.59,0.682,0.937,1.53,1.8,2.56,2.59,1.02,0.788,2.23,1.45,3.61,1.98,1.38,0.533,3.01,0.799,4.89,0.799,1.49,0,2.91-0.288,4.25-0.863s2.51-1.34,3.51-2.3c1-0.959,1.79-2.09,2.36-3.39,0.575-1.3,0.863-2.69,0.863-4.19-0.00004-1.66-0.341-3.16-1.02-4.51-0.682-1.34-1.59-2.56-2.72-3.64-1.13-1.09-2.44-2.08-3.93-2.97-1.49-0.895-3.05-1.73-4.66-2.49-2.26-1.07-4.15-2.13-5.69-3.2-1.53-1.07-2.77-2.15-3.71-3.26-0.937-1.11-1.61-2.28-2.01-3.51-0.405-1.24-0.607-2.53-0.607-3.9,0-2.68,0.66-5.13,1.98-7.35s3.02-4.12,5.11-5.72,4.42-2.83,7-3.71c2.58-0.873,5.12-1.31,7.64-1.31,2.17,0.000059,4,0.256,5.5,0.767,1.49,0.511,2.8,1.11,3.93,1.79,1.13,0.682,2.12,1.34,2.97,1.98,0.852,0.639,1.73,1.09,2.62,1.34z"/>
   <path fill="#004b44" d="m521,71.9c-0.852,0.98-1.69,1.86-2.52,2.65-0.831,0.788-1.61,1.48-2.33,2.08-0.724,0.596-1.37,1.05-1.95,1.37-0.575,0.32-1.01,0.479-1.31,0.479-0.554,0.000047-1.14-0.373-1.76-1.12-0.618-0.745-1.32-1.55-2.11-2.43-0.788-0.873-1.7-1.68-2.75-2.43-1.04-0.745-2.27-1.12-3.67-1.12-1.19,0.000054-2.36,0.224-3.51,0.671s-2.18,1.07-3.1,1.85c-0.916,0.788-1.66,1.75-2.24,2.88-0.575,1.13-0.863,2.38-0.863,3.74-0.00001,1.49,0.714,3.07,2.14,4.73s3.87,3.28,7.32,4.86c1.75,0.809,3.49,1.75,5.24,2.81,1.75,1.07,3.31,2.29,4.7,3.67,1.38,1.38,2.51,2.96,3.39,4.73,0.873,1.77,1.31,3.78,1.31,6.04-0.00004,2.94-0.756,5.7-2.27,8.28s-3.45,4.81-5.82,6.71c-2.36,1.9-5,3.39-7.89,4.47-2.9,1.09-5.73,1.63-8.5,1.63-2-0.00001-3.98-0.288-5.94-0.863s-3.71-1.31-5.24-2.2c-1.53-0.895-2.78-1.86-3.74-2.91-0.959-1.04-1.44-2.01-1.44-2.91,0-0.469,0.256-1.15,0.767-2.04,0.511-0.895,1.12-1.78,1.82-2.65,0.703-0.873,1.42-1.64,2.14-2.3,0.724-0.66,1.32-0.99,1.79-0.99,0.298,0.00002,0.607,0.266,0.927,0.799s0.724,1.19,1.21,1.98c0.49,0.788,1.08,1.65,1.76,2.59,0.682,0.937,1.53,1.8,2.56,2.59,1.02,0.788,2.23,1.45,3.61,1.98,1.38,0.533,3.01,0.799,4.89,0.799,1.49,0,2.91-0.288,4.25-0.863s2.51-1.34,3.51-2.3c1-0.959,1.79-2.09,2.36-3.39,0.575-1.3,0.863-2.69,0.863-4.19-0.00003-1.66-0.341-3.16-1.02-4.51-0.682-1.34-1.59-2.56-2.72-3.64-1.13-1.09-2.44-2.08-3.93-2.97-1.49-0.895-3.05-1.73-4.66-2.49-2.26-1.07-4.15-2.13-5.69-3.2-1.53-1.07-2.77-2.15-3.71-3.26-0.937-1.11-1.61-2.28-2.01-3.51-0.405-1.24-0.607-2.53-0.607-3.9-0.00001-2.68,0.66-5.13,1.98-7.35s3.02-4.12,5.11-5.72,4.42-2.83,7-3.71c2.58-0.873,5.12-1.31,7.64-1.31,2.17,0.000059,4,0.256,5.5,0.767,1.49,0.511,2.8,1.11,3.93,1.79,1.13,0.682,2.12,1.34,2.97,1.98,0.852,0.639,1.73,1.09,2.62,1.34z"/>
  </g>
 </g>
</svg>
